<?xml version="1.0" encoding="UTF-8" standalone="no"?>
<!-- Created with Inkscape (http://www.inkscape.org/) -->

<svg
   width="22"
   height="22"
   viewBox="0 0 22 22"
   version="1.1"
   id="svg5"
   xmlns="http://www.w3.org/2000/svg"
   xmlns:svg="http://www.w3.org/2000/svg">
  <defs
     id="defs2" />
  <g
     id="layer1"
     transform="translate(0,-3.5229273)"
     style="display:inline">
    <path
       style="fill-opacity:1;fill-rule:nonzero;stroke:none;stroke-width:1.51498;stroke-opacity:1;paint-order:markers fill stroke"
       id="rect18366"
       width="14.69787"
       height="6.5873208"
       x="2.5707533"
       y="5.7408957"
       transform="matrix(-0.861112,0,0,1.0766892,20.574046,-0.22649527)"
       d="M 2.5707533,5.7408957 C 3.8693748,5.0410725 5.2596675,4.815058 6.9388158,5.005714 c 1.6080943,0.1825884 3.2918822,0.7238469 4.8222242,1.05068 1.626646,0.3474006 2.810934,0.3982532 3.901548,0.1989507 0.996756,-0.1821504 1.606036,-0.514449 1.606036,-0.514449 0.01,2.2015062 0,6.5873213 0,6.5873213 -1.298579,0.614344 -2.676457,0.718467 -4.359625,0.406251 -1.607157,-0.298117 -3.2915697,-0.928132 -4.8231616,-1.246599 -1.6179451,-0.336423 -2.8240099,-0.288346 -3.906236,0.05444 -1.0010809,0.317082 -1.6088481,0.785911 -1.6088481,0.785911 z" />
    <path
       style="fill-opacity:1;fill-rule:nonzero;stroke:none;stroke-width:1.05962;stroke-opacity:1;paint-order:markers fill stroke"
       id="rect19105"
       width="2.3887327"
       height="21.999998"
       x="3.4452796"
       y="3.5229282"
       d="m 4.4452796,3.5229282 h 0.3887327 a 1,1 45 0 1 1,1 V 24.522926 a 1,1 135 0 1 -1,1 H 4.4452796 a 1,1 45 0 1 -1,-1 V 4.5229282 a 1,1 135 0 1 1,-1 z" />
  </g>
</svg>
