<?xml version="1.0" encoding="UTF-8" standalone="no"?>
<!-- Created with Inkscape (http://www.inkscape.org/) -->

<svg
   width="144"
   height="27"
   viewBox="0 0 38.099999 7.1437501"
   version="1.1"
   id="svg5"
   xmlns:xlink="http://www.w3.org/1999/xlink"
   xmlns="http://www.w3.org/2000/svg"
   xmlns:svg="http://www.w3.org/2000/svg">
  <defs
     id="defs2">
    <linearGradient
       id="linearGradient13351">
      <stop
         style="stop-color:#000000;stop-opacity:1;"
         offset="0"
         id="stop13347" />
      <stop
         style="stop-color:#6d52b7;stop-opacity:1;"
         offset="1"
         id="stop13349" />
    </linearGradient>
    <linearGradient
       id="linearGradient11379">
      <stop
         style="stop-color:#8b76c4;stop-opacity:1;"
         offset="0"
         id="stop11375" />
      <stop
         style="stop-color:#7c64bd;stop-opacity:1;"
         offset="0.55436748"
         id="stop11383" />
    </linearGradient>
    <radialGradient
       xlink:href="#linearGradient11379"
       id="radialGradient11381"
       cx="4.9868698"
       cy="4.2333331"
       fx="4.9868698"
       fy="4.2333331"
       r="3.5718751"
       gradientUnits="userSpaceOnUse"
       gradientTransform="translate(1.4149947,0.66145802)" />
    <linearGradient
       xlink:href="#linearGradient13351"
       id="linearGradient13353"
       x1="8.5587444"
       y1="4.7263265"
       x2="36.591141"
       y2="4.7263265"
       gradientUnits="userSpaceOnUse"
       gradientTransform="translate(1.4149947,0.66145802)" />
  </defs>
  <g
     id="layer1">
    <g
       id="g16280"
       transform="translate(-1.4149947,-0.66145802)">
      <path
         id="circle10550"
         style="fill:url(#radialGradient11381);fill-rule:evenodd;stroke-width:0.165894;paint-order:markers fill stroke"
         class="UnoptimicedTransforms"
         d="M 8.5587449,4.2333331 A 3.5718751,3.5718751 0 0 1 4.9868698,7.8052082 3.5718751,3.5718751 0 0 1 1.4149947,4.2333331 3.5718751,3.5718751 0 0 1 4.9868698,0.66145802 3.5718751,3.5718751 0 0 1 8.5587449,4.2333331 Z" />
      <g
         aria-label="OneBoard
"
         id="text1725"
         style="font-size:6.35px;line-height:1.25;fill:url(#linearGradient13353);stroke-width:0.264583">
        <path
           d="m 13.609599,4.1992268 q 0,0.523999 -0.124023,0.9549804 -0.120923,0.4309815 -0.372071,0.7379395 -0.251147,0.306958 -0.63562,0.4743896 -0.381372,0.1674317 -0.90227,0.1674317 -0.520899,0 -0.905371,-0.1674317 Q 10.288872,6.1991047 10.037724,5.8921467 9.7896772,5.5851887 9.6656538,5.1542072 9.5447309,4.7201252 9.5447309,4.1930256 q 0,-0.5270996 0.1209229,-0.9549804 0.1240234,-0.4309815 0.3751712,-0.7348389 0.251147,-0.3038574 0.632519,-0.4681885 0.384473,-0.1674316 0.908472,-0.1674316 0.520898,0 0.90227,0.1674316 0.381372,0.1643311 0.629419,0.4712891 0.251148,0.3038574 0.372071,0.7348389 0.124023,0.4278808 0.124023,0.958081 z m -3.075781,0 q 0,0.3565674 0.06201,0.6418213 0.06201,0.2821533 0.189135,0.4805908 0.130225,0.1953369 0.325562,0.3007568 0.195337,0.1054199 0.465088,0.1054199 0.275952,0 0.471289,-0.1054199 0.198437,-0.1054199 0.322461,-0.3007568 0.127124,-0.1984375 0.186035,-0.4805908 0.06201,-0.2852539 0.06201,-0.6418213 0,-0.3565674 -0.06201,-0.6387207 Q 12.496489,3.2752522 12.369365,3.0768147 12.245341,2.8783772 12.050004,2.7729573 11.854667,2.6675374 11.581816,2.6675374 q -0.269751,0 -0.468189,0.1054199 -0.198437,0.1054199 -0.328662,0.3038574 -0.127124,0.1984375 -0.189135,0.4836914 -0.06201,0.2821533 -0.06201,0.6387207 z"
           style="font-weight:bold;-inkscape-font-specification:'sans-serif Bold'"
           id="path22888" />
        <path
           d="M 17.47913,6.4719563 H 16.533452 V 4.4472737 q 0,-0.3751709 -0.114722,-0.5612061 -0.111621,-0.1891357 -0.359668,-0.1891357 -0.186035,0 -0.310059,0.074414 -0.124023,0.074414 -0.198437,0.2201416 -0.07131,0.1457276 -0.10232,0.359668 -0.031,0.2139404 -0.031,0.4898926 V 6.4719563 H 14.471562 V 3.0055012 h 0.722436 l 0.127124,0.4433838 h 0.05271 q 0.07441,-0.1333252 0.179834,-0.2294433 0.108521,-0.096118 0.235645,-0.1581299 0.127124,-0.062012 0.269751,-0.089917 0.142627,-0.031006 0.291455,-0.031006 0.254248,0 0.461987,0.074414 0.20774,0.071314 0.356568,0.2263428 0.148828,0.1550292 0.229443,0.3968749 0.08062,0.2387452 0.08062,0.5736084 z"
           style="font-weight:bold;-inkscape-font-specification:'sans-serif Bold'"
           id="path22890" />
        <path
           d="m 19.854179,3.6132161 q -0.251148,0 -0.418579,0.1767334 -0.164331,0.1767334 -0.189136,0.5550048 h 1.206128 q -0.0031,-0.1581298 -0.04031,-0.291455 -0.03721,-0.1333252 -0.111621,-0.2294434 -0.07441,-0.099219 -0.186035,-0.1550293 -0.111621,-0.055811 -0.260449,-0.055811 z m 0.120923,2.9207519 q -0.372071,0 -0.68523,-0.1085205 Q 18.976713,6.316927 18.75037,6.0998859 18.524027,5.8797443 18.396903,5.5479817 18.27288,5.2131184 18.27288,4.7635334 q 0,-0.4557861 0.114722,-0.7968505 0.114721,-0.3410645 0.31936,-0.5674073 0.207739,-0.2294433 0.496094,-0.344165 0.291455,-0.1147217 0.644922,-0.1147217 0.344165,0 0.620117,0.1054199 0.279053,0.1023194 0.471289,0.3038575 0.195337,0.201538 0.297656,0.4960937 0.10542,0.2914551 0.10542,0.6697266 v 0.4588867 h -2.1146 q 0.0062,0.1984375 0.06201,0.3596679 0.05891,0.1581299 0.161231,0.269751 0.10542,0.1085205 0.251147,0.1674316 0.148828,0.058911 0.337964,0.058911 0.15813,0 0.297656,-0.015503 0.142627,-0.018603 0.275952,-0.05271 0.133326,-0.034107 0.26355,-0.083716 0.130225,-0.05271 0.266651,-0.1209229 v 0.7317383 q -0.124024,0.065112 -0.251148,0.1116211 -0.124023,0.043408 -0.26355,0.074414 -0.139526,0.031006 -0.300757,0.043408 -0.16123,0.015503 -0.353466,0.015503 z"
           style="font-weight:bold;-inkscape-font-specification:'sans-serif Bold'"
           id="path22892" />
        <path
           d="m 22.216825,1.9388997 h 1.327051 q 0.427881,0 0.750342,0.062012 0.322461,0.058911 0.539502,0.1953369 0.217041,0.1333252 0.325561,0.3534668 0.111621,0.217041 0.111621,0.5364014 0,0.1922363 -0.04651,0.3596679 -0.04651,0.1674317 -0.136426,0.2945557 -0.08992,0.127124 -0.220142,0.2139404 -0.127124,0.083716 -0.294555,0.1116211 v 0.031006 q 0.170532,0.037207 0.316259,0.1085205 0.148828,0.068213 0.257349,0.1922363 0.111621,0.1209228 0.173633,0.306958 0.06511,0.1860351 0.06511,0.4526855 0,0.3100586 -0.10852,0.5550049 -0.108521,0.2418457 -0.31316,0.4123779 -0.201538,0.1674317 -0.492993,0.2573487 -0.288354,0.089917 -0.654223,0.089917 h -1.599903 z m 0.961182,1.7952392 h 0.499194 q 0.179834,0 0.300757,-0.031006 0.120923,-0.034107 0.195337,-0.099219 0.07441,-0.065112 0.10542,-0.1612305 0.03411,-0.099219 0.03411,-0.2294433 0,-0.2604492 -0.164331,-0.3720703 -0.16123,-0.1147217 -0.514697,-0.1147217 h -0.455786 z m 0,0.7627441 v 1.1813233 h 0.564307 q 0.189135,0 0.316259,-0.043408 0.130225,-0.043408 0.20774,-0.1240235 0.08061,-0.080615 0.114721,-0.1953369 0.03411,-0.1147217 0.03411,-0.254248 0,-0.127124 -0.03411,-0.2294434 -0.03411,-0.1054199 -0.117822,-0.179834 -0.08061,-0.074414 -0.21394,-0.1147216 -0.133326,-0.040308 -0.331763,-0.040308 z"
           style="font-weight:bold;-inkscape-font-specification:'sans-serif Bold'"
           id="path22894" />
        <path
           d="m 27.007231,4.7325276 q 0,0.5177978 0.145727,0.7813476 0.145728,0.2604492 0.47439,0.2604492 0.325561,0 0.471289,-0.2635498 0.145727,-0.2635498 0.145727,-0.778247 0,-0.5177979 -0.145727,-0.7720459 -0.145728,-0.2573486 -0.47749,-0.2573486 -0.325562,0 -0.47129,0.2573486 -0.142626,0.254248 -0.142626,0.7720459 z m 2.201416,0 q 0,0.434082 -0.111622,0.7689453 -0.10852,0.3348632 -0.316259,0.5643066 -0.204639,0.2294434 -0.502295,0.3503662 -0.294556,0.1178223 -0.663526,0.1178223 -0.344165,0 -0.632519,-0.1178223 Q 26.694071,6.2952229 26.483232,6.0657795 26.275492,5.8363361 26.15767,5.5014729 26.039848,5.1666096 26.039848,4.7325276 q 0,-0.4309815 0.10852,-0.7658447 0.111621,-0.3348633 0.31626,-0.5612061 0.207739,-0.2294433 0.502295,-0.3472656 0.294556,-0.1178223 0.666626,-0.1178223 0.344165,0 0.632519,0.1178223 0.288355,0.1178223 0.496094,0.3472656 0.21084,0.2263428 0.328662,0.5612061 0.117823,0.3348632 0.117823,0.7658447 z"
           style="font-weight:bold;-inkscape-font-specification:'sans-serif Bold'"
           id="path22896" />
        <path
           d="M 32.036381,6.4719563 31.853446,6.0006672 h -0.02791 q -0.10232,0.1395264 -0.204639,0.2418457 -0.102319,0.099219 -0.223242,0.164331 -0.120923,0.065112 -0.272852,0.096118 -0.148828,0.031006 -0.347265,0.031006 -0.21084,0 -0.390674,-0.065112 -0.179834,-0.068213 -0.313159,-0.2015381 -0.130225,-0.1364258 -0.204639,-0.3410645 -0.07441,-0.2077392 -0.07441,-0.4898925 0,-0.5519043 0.353467,-0.8123535 0.353467,-0.2635498 1.0573,-0.2914551 l 0.551904,-0.018603 V 4.0534993 q 0,-0.2139405 -0.124024,-0.3162598 -0.124023,-0.1023193 -0.347265,-0.1023193 -0.223242,0 -0.437183,0.065112 -0.21084,0.065112 -0.42478,0.1736328 L 30.117118,3.2473469 q 0.260449,-0.1457275 0.576709,-0.2294433 0.31626,-0.083716 0.663525,-0.083716 0.648023,0 0.992188,0.3038574 0.347265,0.3038574 0.347265,0.9239746 v 2.3099365 z m -0.279053,-1.6061035 -0.313159,0.012402 q -0.189136,0.0062 -0.319361,0.049609 -0.130224,0.043408 -0.21084,0.1178222 -0.07751,0.071313 -0.114721,0.1736329 -0.03411,0.099219 -0.03411,0.2232421 0,0.217041 0.10542,0.3100586 0.10542,0.089917 0.275952,0.089917 0.130225,0 0.241846,-0.043408 0.111621,-0.046509 0.192236,-0.1333252 0.08372,-0.089917 0.130225,-0.217041 0.04651,-0.1302246 0.04651,-0.2976562 z"
           style="font-weight:bold;-inkscape-font-specification:'sans-serif Bold'"
           id="path22898" />
        <path
           d="m 35.478032,2.9403889 q 0.03721,0 0.08062,0.0031 0.04651,0 0.08682,0.0062 0.04341,0.0031 0.07751,0.0093 0.03721,0.0031 0.05581,0.0093 v 0.8867676 q -0.02481,-0.0062 -0.06821,-0.012402 -0.04341,-0.0062 -0.09302,-0.0093 -0.04651,-0.0062 -0.09302,-0.0062 -0.04651,-0.0031 -0.07751,-0.0031 -0.182935,0 -0.337964,0.046509 -0.151929,0.046509 -0.26355,0.1519287 -0.10852,0.1023193 -0.170532,0.2728516 -0.05891,0.1674316 -0.05891,0.4123779 V 6.4719563 H 33.67039 V 3.0055012 h 0.716235 l 0.139527,0.5208985 h 0.04651 q 0.07441,-0.1333252 0.16123,-0.2418457 0.08682,-0.1085205 0.192236,-0.1829346 0.108521,-0.077515 0.241846,-0.1178223 0.136426,-0.043408 0.310059,-0.043408 z"
           style="font-weight:bold;-inkscape-font-specification:'sans-serif Bold'"
           id="path22900" />
        <path
           d="m 37.446903,6.533968 q -0.26665,0 -0.486792,-0.1147217 -0.220142,-0.1147217 -0.378271,-0.3379639 -0.15813,-0.2263427 -0.248047,-0.561206 -0.08682,-0.3348633 -0.08682,-0.7751465 0,-0.4464844 0.08682,-0.7813476 0.08992,-0.3379639 0.251147,-0.5643067 0.164331,-0.2294433 0.390674,-0.344165 0.226343,-0.1147217 0.499194,-0.1147217 0.167432,0 0.306958,0.040308 0.139527,0.037207 0.251148,0.1085205 0.111621,0.068213 0.198437,0.1612305 0.08992,0.089917 0.15813,0.1984375 h 0.03101 q -0.0186,-0.1209228 -0.03411,-0.2449463 -0.0155,-0.1054199 -0.02791,-0.2232422 -0.0093,-0.1209228 -0.0093,-0.2232421 V 1.6474446 h 0.945678 v 4.8245117 h -0.722436 l -0.182935,-0.449585 h -0.04031 q -0.06511,0.1054199 -0.148829,0.2015381 -0.08371,0.093018 -0.195337,0.1612304 -0.10852,0.068213 -0.248046,0.1085206 -0.136426,0.040308 -0.310059,0.040308 z m 0.344165,-0.7534424 q 0.167432,0 0.285254,-0.05581 0.117822,-0.058911 0.189136,-0.1736329 0.07441,-0.1178222 0.10852,-0.291455 0.03721,-0.1736328 0.04031,-0.4061768 V 4.7511311 q 0,-0.2511475 -0.03101,-0.4464844 -0.03101,-0.1953369 -0.102319,-0.3255615 -0.07131,-0.1333252 -0.192237,-0.2015381 -0.120923,-0.068213 -0.303857,-0.068213 -0.297656,0 -0.437183,0.269751 -0.139526,0.2666504 -0.139526,0.7782471 0,0.5115966 0.139526,0.7689453 0.142627,0.254248 0.443384,0.254248 z"
           style="font-weight:bold;-inkscape-font-specification:'sans-serif Bold'"
           id="path22902" />
      </g>
    </g>
  </g>
</svg>
