<?xml version="1.0" encoding="UTF-8" standalone="no"?>
<!-- Created with Inkscape (http://www.inkscape.org/) -->

<svg
   width="22"
   height="22"
   viewBox="0 0 22 22"
   version="1.1"
   id="svg5"
   xmlns="http://www.w3.org/2000/svg"
   xmlns:svg="http://www.w3.org/2000/svg">
  <defs
     id="defs2" />
  <g
     id="layer1"
     transform="translate(0,-3.5229273)">
    <rect
       style="fill:#9ca3af;fill-opacity:1;stroke-width:0.422447;stroke-dasharray:none"
       id="rect13898-7-5"
       width="12.672597"
       height="3.4725699"
       x="20.20962"
       y="0.75413007"
       ry="1.7365123"
       transform="matrix(0.70709623,0.70711733,-0.70709623,0.70711733,0,0)" />
    <g
       id="path962">
      <path
         style="color:#000000;fill:#9ca3af;stroke-linecap:square;stroke-linejoin:bevel;-inkscape-stroke:none;paint-order:markers fill stroke"
         d="M 8.5058594,3.5234375 C 3.829452,3.5234375 0,7.3508809 0,12.027344 c 0,4.676463 3.829452,8.503906 8.5058594,8.503906 4.6764076,0 8.5039066,-3.827443 8.5039066,-8.503906 0,-4.6764631 -3.827499,-8.5039065 -8.5039066,-8.5039065 z m 0,3.4707031 c 2.7996376,0 5.0312496,2.2333986 5.0312496,5.0332034 0,2.799804 -2.231612,5.03125 -5.0312496,5.03125 -2.7996372,0 -5.0332031,-2.231446 -5.0332031,-5.03125 0,-2.7998048 2.2335659,-5.0332034 5.0332031,-5.0332034 z"
         id="path1589" />
    </g>
  </g>
</svg>
